<svg width="61" height="106" viewBox="0 0 61 106" fill="none" xmlns="http://www.w3.org/2000/svg">
<path fill-rule="evenodd" clip-rule="evenodd" d="M13 54H69V106H17C14.7909 106 13 104.209 13 102V54Z" fill="#1645BC"/>
<path fill-rule="evenodd" clip-rule="evenodd" d="M69.5 54L57 68H0L12.5 54H69.5Z" fill="#4F81FF"/>
<circle cx="55" cy="22" r="22" fill="#1645BC"/>
<path fill-rule="evenodd" clip-rule="evenodd" d="M54.1741 15.6145L54.8972 16.6831L55.6204 15.6145C57.8315 13.4361 60.8911 13.5015 63.1595 15.5872L63.3056 15.7262C65.5167 17.9046 65.5638 21.4076 63.4467 23.6423L63.3056 23.7863L54.8972 32L46.6944 23.7863C44.4352 21.5605 44.4352 17.9519 46.6944 15.7262C48.9537 13.5005 51.9148 13.3887 54.1741 15.6145Z" fill="#4F81FF"/>
</svg>
