<?xml version="1.0" ?><svg xmlns="http://www.w3.org/2000/svg" width="24" height="24" viewBox="0 0 24 24" fill="none"><path fill-rule="evenodd" clip-rule="evenodd" d="M4 6C4 3.79086 5.79086 2 8 2C10.2091 2 12 3.79086 12 6C12 8.20914 10.2091 10 8 10C5.79086 10 4 8.20914 4 6ZM8 4C6.89543 4 6 4.89543 6 6C6 7.10457 6.89543 8 8 8C9.10457 8 10 7.10457 10 6C10 4.89543 9.10457 4 8 4Z" fill="black"/><path fill-rule="evenodd" clip-rule="evenodd" d="M14 8C14 6.34315 15.3431 5 17 5C18.6569 5 20 6.34315 20 8C20 9.65685 18.6569 11 17 11C15.3431 11 14 9.65685 14 8ZM17 7C16.4477 7 16 7.44772 16 8C16 8.55228 16.4477 9 17 9C17.5523 9 18 8.55228 18 8C18 7.44772 17.5523 7 17 7Z" fill="black"/><path fill-rule="evenodd" clip-rule="evenodd" d="M1 18C1 14.134 4.13401 11 8 11C10.0765 11 11.9412 11.9046 13.2221 13.3386C14.253 12.5023 15.5681 12 17 12C20.3137 12 23 14.6863 23 18V22H1V18ZM14.3344 15.0175C14.7614 15.923 15 16.9346 15 18V20H21V18C21 15.7909 19.2091 14 17 14C15.9762 14 15.0426 14.3838 14.3344 15.0175ZM13 20V18C13 17.0379 12.7292 16.1421 12.2603 15.3811C11.3784 13.9502 9.79975 13 8 13C5.23858 13 3 15.2386 3 18V20H13Z" fill="black"/></svg>